<mxfile host="Electron" agent="Mozilla/5.0 (Windows NT 10.0; Win64; x64) AppleWebKit/537.36 (KHTML, like Gecko) draw.io/26.0.16 Chrome/132.0.6834.196 Electron/34.2.0 Safari/537.36" version="26.0.16">
  <diagram name="Page-1" id="4OF9UQr3pEUZaM9F4PXM">
    <mxGraphModel dx="1477" dy="844" grid="1" gridSize="10" guides="1" tooltips="1" connect="1" arrows="1" fold="1" page="1" pageScale="1" pageWidth="1169" pageHeight="827" math="0" shadow="0">
      <root>
        <mxCell id="0" />
        <mxCell id="1" parent="0" />
        <mxCell id="hNzxFXfVuPtoHGgDMohG-1" value="Workshop Agenda" style="rounded=1;whiteSpace=wrap;html=1;arcSize=6;fontFamily=Architects Daughter;fontSize=16;verticalAlign=top;align=left;spacing=-1;spacingRight=4;spacingLeft=9;spacingBottom=0;spacingTop=2;sketch=1;curveFitting=1;jiggle=2;fillColor=#fff2cc;strokeColor=#d6b656;fontStyle=1" vertex="1" parent="1">
          <mxGeometry x="40" y="90" width="360" height="120" as="geometry" />
        </mxCell>
        <mxCell id="hNzxFXfVuPtoHGgDMohG-2" value="Participants" style="rounded=1;whiteSpace=wrap;html=1;arcSize=6;fontFamily=Architects Daughter;fontSize=16;verticalAlign=top;align=left;spacing=-1;spacingRight=4;spacingLeft=9;spacingBottom=0;spacingTop=2;sketch=1;curveFitting=1;jiggle=2;fillColor=#fff2cc;strokeColor=#d6b656;fontStyle=1" vertex="1" parent="1">
          <mxGeometry x="40" y="220" width="360" height="250" as="geometry" />
        </mxCell>
        <mxCell id="hNzxFXfVuPtoHGgDMohG-3" value="Splitting the monolithe / 01.&amp;nbsp;&lt;span&gt;EventStorming Big Picture&lt;/span&gt;" style="text;whiteSpace=wrap;html=1;fontFamily=Architects Daughter;fontSize=19;fontStyle=1;fillColor=#dae8fc;strokeColor=#6c8ebf;sketch=1;curveFitting=1;jiggle=2;" vertex="1" parent="1">
          <mxGeometry x="40" y="30" width="550" height="40" as="geometry" />
        </mxCell>
        <mxCell id="hNzxFXfVuPtoHGgDMohG-4" value="Outcomes" style="rounded=1;whiteSpace=wrap;html=1;arcSize=6;fontFamily=Architects Daughter;fontSize=16;verticalAlign=top;align=left;spacing=-1;spacingRight=4;spacingLeft=9;spacingBottom=0;spacingTop=2;sketch=1;curveFitting=1;jiggle=2;fillColor=#fff2cc;strokeColor=#d6b656;fontStyle=1" vertex="1" parent="1">
          <mxGeometry x="430" y="90" width="640" height="380" as="geometry" />
        </mxCell>
        <mxCell id="hNzxFXfVuPtoHGgDMohG-6" value="&lt;ol&gt;&lt;li&gt;EventStorming Big Picture&lt;/li&gt;&lt;li&gt;&lt;span style=&quot;font-weight: normal;&quot;&gt;Message Flow&lt;/span&gt;&lt;/li&gt;&lt;li&gt;&lt;span style=&quot;font-weight: normal;&quot;&gt;modelingBouded Context Canvas&lt;/span&gt;&lt;/li&gt;&lt;/ol&gt;" style="text;fontFamily=Architects Daughter;spacing=0;align=left;spacingLeft=-8;whiteSpace=wrap;fontStyle=1;html=1;fontSize=14;spacingTop=-10;" vertex="1" parent="1">
          <mxGeometry x="50" y="116" width="240" height="60" as="geometry" />
        </mxCell>
        <mxCell id="hNzxFXfVuPtoHGgDMohG-7" value="&lt;ul&gt;&lt;li style=&quot;forced-color-adjust: none; color: rgb(0, 0, 0); font-family: &amp;quot;Architects Daughter&amp;quot;; font-size: 14px; font-style: normal; font-variant-ligatures: normal; font-variant-caps: normal; font-weight: 400; letter-spacing: normal; orphans: 2; text-indent: 0px; text-transform: none; widows: 2; word-spacing: 0px; -webkit-text-stroke-width: 0px; white-space: normal; text-decoration-thickness: initial; text-decoration-style: initial; text-decoration-color: initial;&quot;&gt;Facilitator – Guides the session, ensures the methodology is followed, and keeps the group focused.&lt;/li&gt;&lt;li style=&quot;forced-color-adjust: none; color: rgb(0, 0, 0); font-family: &amp;quot;Architects Daughter&amp;quot;; font-size: 14px; font-style: normal; font-variant-ligatures: normal; font-variant-caps: normal; font-weight: 400; letter-spacing: normal; orphans: 2; text-indent: 0px; text-transform: none; widows: 2; word-spacing: 0px; -webkit-text-stroke-width: 0px; white-space: normal; text-decoration-thickness: initial; text-decoration-style: initial; text-decoration-color: initial;&quot;&gt;Domain Experts – People who deeply understand the business domain; they provide essential knowledge and clarify processes.&lt;/li&gt;&lt;li style=&quot;forced-color-adjust: none; color: rgb(0, 0, 0); font-family: &amp;quot;Architects Daughter&amp;quot;; font-size: 14px; font-style: normal; font-variant-ligatures: normal; font-variant-caps: normal; font-weight: 400; letter-spacing: normal; orphans: 2; text-indent: 0px; text-transform: none; widows: 2; word-spacing: 0px; -webkit-text-stroke-width: 0px; white-space: normal; text-decoration-thickness: initial; text-decoration-style: initial; text-decoration-color: initial;&quot;&gt;Product Owner / Product Manager – Ensures alignment with product vision and priorities.&lt;/li&gt;&lt;li style=&quot;forced-color-adjust: none; color: rgb(0, 0, 0); font-family: &amp;quot;Architects Daughter&amp;quot;; font-size: 14px; font-style: normal; font-variant-ligatures: normal; font-variant-caps: normal; font-weight: 400; letter-spacing: normal; orphans: 2; text-indent: 0px; text-transform: none; widows: 2; word-spacing: 0px; -webkit-text-stroke-width: 0px; white-space: normal; text-decoration-thickness: initial; text-decoration-style: initial; text-decoration-color: initial;&quot;&gt;Developers / Engineers – Technical team members who will build or maintain the system and need to understand the domain.&lt;/li&gt;&lt;/ul&gt;" style="text;whiteSpace=wrap;html=1;strokeColor=none;labelBackgroundColor=none;spacingLeft=-8;spacingTop=-10;" vertex="1" parent="1">
          <mxGeometry x="40" y="244" width="360" height="220" as="geometry" />
        </mxCell>
        <mxCell id="hNzxFXfVuPtoHGgDMohG-8" value="Rules" style="rounded=1;whiteSpace=wrap;html=1;arcSize=6;fontFamily=Architects Daughter;fontSize=16;verticalAlign=top;align=left;spacing=-1;spacingRight=4;spacingLeft=9;spacingBottom=0;spacingTop=2;sketch=1;curveFitting=1;jiggle=2;fillColor=#fff2cc;strokeColor=#d6b656;fontStyle=1" vertex="1" parent="1">
          <mxGeometry x="43" y="490" width="1020" height="150" as="geometry" />
        </mxCell>
        <mxCell id="hNzxFXfVuPtoHGgDMohG-9" value="&lt;ul&gt;&lt;li style=&quot;forced-color-adjust: none; color: rgb(0, 0, 0); font-family: &amp;quot;Architects Daughter&amp;quot;; font-size: 14px; font-style: normal; font-variant-ligatures: normal; font-variant-caps: normal; font-weight: 400; letter-spacing: normal; orphans: 2; text-indent: 0px; text-transform: none; widows: 2; word-spacing: 0px; -webkit-text-stroke-width: 0px; white-space: normal; text-decoration-thickness: initial; text-decoration-style: initial; text-decoration-color: initial;&quot;&gt;XXXXX&lt;/li&gt;&lt;li style=&quot;forced-color-adjust: none; color: rgb(0, 0, 0); font-family: &amp;quot;Architects Daughter&amp;quot;; font-size: 14px; font-style: normal; font-variant-ligatures: normal; font-variant-caps: normal; font-weight: 400; letter-spacing: normal; orphans: 2; text-indent: 0px; text-transform: none; widows: 2; word-spacing: 0px; -webkit-text-stroke-width: 0px; white-space: normal; text-decoration-thickness: initial; text-decoration-style: initial; text-decoration-color: initial;&quot;&gt;XXXXX&lt;/li&gt;&lt;li style=&quot;forced-color-adjust: none; color: rgb(0, 0, 0); font-family: &amp;quot;Architects Daughter&amp;quot;; font-size: 14px; font-style: normal; font-variant-ligatures: normal; font-variant-caps: normal; font-weight: 400; letter-spacing: normal; orphans: 2; text-indent: 0px; text-transform: none; widows: 2; word-spacing: 0px; -webkit-text-stroke-width: 0px; white-space: normal; text-decoration-thickness: initial; text-decoration-style: initial; text-decoration-color: initial;&quot;&gt;XXXXX&lt;/li&gt;&lt;/ul&gt;" style="text;whiteSpace=wrap;html=1;strokeColor=none;labelBackgroundColor=none;spacingLeft=-8;spacingTop=-10;" vertex="1" parent="1">
          <mxGeometry x="49" y="520" width="1000" height="114" as="geometry" />
        </mxCell>
      </root>
    </mxGraphModel>
  </diagram>
</mxfile>
